{"title":"Elysium CamRip.mp4","uid":8810091,"size":479997799,"categoryP":"video","categoryS":"movies","magnet":"?xt=urn:btih:66018126aa248bb1fc547a3711d0fb6cdd06d73c&amp;dn=Elysium+CamRip.mp4&amp;tr=udp%3A%2F%2Ftracker.openbittorrent.com%3A80&amp;tr=udp%3A%2F%2Fopen.demonii.com%3A1337&amp;tr=udp%3A%2F%2Ftracker.coppersurfer.tk%3A6969&amp;tr=udp%3A%2F%2Fexodus.desync.com%3A6969","seeders":1,"leechers":0,"uploader":"globeplus","files":-1,"time":1376436886,"description":"Elysium CamRip.mp4\n\nGeneralINFO :\n\nFormat                                   : MPEG-4\nCodec ID                                 : M4V \nFile size                                : 458 MiB\nDuration                                 : 1h 36mn\nOverall bit rate mode                    : Variable\nOverall bit rate                         : 660 Kbps\n\nVideo\n\nID                                       : 1\nFormat                                   : AVC\nFormat/Info                              : Advanced Video Codec\nFormat profile                           : &lt;a class=&quot;__cf_email__&quot; href=&quot;/cdn-cgi/l/email-protection&quot; data-cfemail=&quot;3971505e5179750a1709&quot;&gt;[email&amp;#160;protected]&lt;/a&gt;&lt;script cf-hash='f9e31' type=&quot;text/javascript&quot;&gt;\n/* &lt;![CDATA[ */!function(){try{var t=&quot;currentScript&quot;in document?document.currentScript:function(){for(var t=document.getElementsByTagName(&quot;script&quot;),e=t.length;e--;)if(t[e].getAttribute(&quot;cf-hash&quot;))return t[e]}();if(t&amp;&amp;t.previousSibling){var e,r,n,i,c=t.previousSibling,a=c.getAttribute(&quot;data-cfemail&quot;);if(a){for(e=&quot;&quot;,r=parseInt(a.substr(0,2),16),n=2;a.length-n;n+=2)i=parseInt(a.substr(n,2),16)^r,e+=String.fromCharCode(i);e=document.createTextNode(e),c.parentNode.replaceChild(e,c)}}}catch(u){}}();/* ]]&gt; */&lt;/script&gt;\nFormat settings, CABAC                   : Yes\nFormat settings, ReFrames                : 2 frames\nCodec ID                                 : avc1\nCodec ID/Info                            : Advanced Video Coding\nDuration                                 : 1h 36mn\nBit rate mode                            : Variable\nBit rate                                 : 610 Kbps\nMaximum bit rate                         : 2 423 Kbps\nWidth                                    : 896 pixels\nHeight                                   : 328 pixels\nDisplay aspect ratio                     : 2.732\nFrame rate mode                          : Constant\nFrame rate                               : 24.000 fps\nColor space                              : YUV\nChroma subsampling                       : 4:2:0\nBit depth                                : 8 bits\nScan type                                : Progressive\nBits/(Pixel*Frame)                       : 0.087\nStream size                              : 423 MiB (92%)\nWriting library                          : x264 core 120 r2151 a3f4407\n\n\nAudio\n\nID                                       : 2\nFormat                                   : AAC\nFormat/Info                              : Advanced Audio Codec\nFormat profile                           : HE-AAC / LC\nCodec ID                                 : 40\nDuration                                 : 1h 36mn\nBit rate mode                            : Variable\nBit rate                                 : 48.0 Kbps\nMaximum bit rate                         : 52.0 Kbps\nChannel(s)                               : 2 channels\nChannel positions                        : Front: L R\nSampling rate                            : 48.0 KHz / 24.0 KHz\nCompression mode                         : Lossy\nStream size                              : 33.3 MiB (7%)\nLanguage                                 : English\n\n\nPlot\n\nIn 2154, two classes of people exist: the wealthy, who live on an advanced space station called Elysium, built by the Armadyne Corporation, where there is no disease, poverty, or war, and the poor, who live on an overpopulated, ruined Earth. A high-ranking Elysian government minister, Jessica Delacourt (Jodie Foster), employs vicious South African mercenary Kruger (Sharlto Copley) to eliminate the illegal immigrants attempting to reach Elysium and use its advanced Med-Pods. President Patel (Faran Tahir) disagrees with her methods and threatens to dismiss her, in addition to firing Kruger.\n\nDelacourt convinces Armadyne's CEO, John Carlyle (William Fichtner), to write a computer program that can override Elysium's controls and make her President in return for renewing Armadyne's defense contracts on Elysium for the next two hundred years. Carlyle agrees, and, after creating the program, stores it in his own mind for safekeeping until he leaves Earth for Elysium. Meanwhile, Max Da Costa (Matt Damon), an ex-con who lives in the ruins of Los Angeles and works in one of Armadyne's factories, reconnects with an old friend, Frey (Alice Braga), who works as a nurse in a rundown hospital and has a daughter, Matilda, who is dying of leukemia.\n\n\n\n* enjoy ...\n\n","torrent":{"xt":"urn:btih:66018126aa248bb1fc547a3711d0fb6cdd06d73c","amp;dn":"Elysium+CamRip.mp4","amp;tr":["udp%3A%2F%2Ftracker.openbittorrent.com%3A80","udp%3A%2F%2Fopen.demonii.com%3A1337","udp%3A%2F%2Ftracker.coppersurfer.tk%3A6969","udp%3A%2F%2Fexodus.desync.com%3A6969"],"infoHash":"66018126aa248bb1fc547a3711d0fb6cdd06d73c","infoHashBuffer":{"type":"Buffer","data":[102,1,129,38,170,36,139,177,252,84,122,55,17,208,251,108,221,6,215,60]},"announce":[],"urlList":[]}}